<svg xmlns="http://www.w3.org/2000/svg" version="1.1" xmlns:xlink="http://www.w3.org/1999/xlink" xmlns:svgjs="http://svgjs.dev/svgjs" width="3840" height="2160" preserveAspectRatio="none" viewBox="0 0 3840 2160"><g mask="url(&quot;#SvgjsMask1025&quot;)" fill="none"><rect width="3840" height="2160" x="0" y="0" fill="rgba(193, 143, 19, 1)"></rect><path d="M1302.3772269607173 1288.5761563043447L1733.1551542222116 927.1105564199115 940.911627076284 857.7982290428504z" fill="rgba(142, 115, 28, 0.4)" class="triangle-float1"></path><path d="M1457.6897817766005-117.29814043640178L1703.3223159097638 309.08780932795196 1924.8675790693894-59.62542656055891z" fill="rgba(142, 115, 28, 0.4)" class="triangle-float1"></path><path d="M3320.8560504571965 804.5329645895922L3103.042310168378 1127.4551143475649 3425.964459926351 1345.268854636383 3643.778200215169 1022.3467048784104z" fill="rgba(142, 115, 28, 0.4)" class="triangle-float3"></path><path d="M2590.3288979731155 1961.5829774974522L2953.0708596652275 2225.130439358863 3216.6183215266383 1862.388477666751 2853.8763598345263 1598.8410158053402z" fill="rgba(142, 115, 28, 0.4)" class="triangle-float1"></path><path d="M1690.0822462672866 874.1838654241928L1985.7302364774716 723.5436903202237 1835.0900613735025 427.8957001100388 1539.4420711633175 578.5358752140078z" fill="rgba(142, 115, 28, 0.4)" class="triangle-float1"></path><path d="M299.6957969248529 147.6363597164547L-50.422310961758 595.767102185196 397.7084315069833 945.885210071807 747.8265393935942 497.7544676030656z" fill="rgba(142, 115, 28, 0.4)" class="triangle-float2"></path><path d="M847.0091044999041 705.7596397444925L341.74486521920005 813.1568691808183 449.1420946555259 1318.4211084615222 954.4063339362299 1211.0238790251965z" fill="rgba(142, 115, 28, 0.4)" class="triangle-float1"></path><path d="M2085.1637473494043 1701.7010572581153L1452.87066426425 1723.7812182637585 1474.9508252698934 2356.0743013489127 2107.2439083550476 2333.9941403432695z" fill="rgba(142, 115, 28, 0.4)" class="triangle-float1"></path><path d="M3583.494732658995 1419.2177753220444L3045.2117340162586 1447.4279919067267 3611.704949243677 1957.5007739647808z" fill="rgba(142, 115, 28, 0.4)" class="triangle-float3"></path><path d="M3324.140338700562 386.5152640208284L3682.4539813836905 417.86364574228065 3550.3197326243044-135.28100914313768z" fill="rgba(142, 115, 28, 0.4)" class="triangle-float3"></path><path d="M2841.062618942369 440.30042333449677L2307.435282671886 235.46008082850847 2102.594940165898 769.0874170989915 2636.222276436381 973.9277596049799z" fill="rgba(142, 115, 28, 0.4)" class="triangle-float3"></path><path d="M3709.7198106691762 40.537496512764726L3339.638386662912 53.46102461366526 3544.064390817395 602.1213965726108z" fill="rgba(142, 115, 28, 0.4)" class="triangle-float1"></path><path d="M3190.1361294295566 1219.4632787893834L2800.4990519972125 994.5062072475605 2575.5419804553894 1384.1432846799046 2965.1790578877335 1609.1003562217275z" fill="rgba(142, 115, 28, 0.4)" class="triangle-float3"></path><path d="M1000.1858700099745 1662.4933481761086L1298.0289964935532 1166.7991438103584 802.334792127803 868.9560173267796 504.49166564422416 1364.6502216925298z" fill="rgba(142, 115, 28, 0.4)" class="triangle-float2"></path><path d="M921.4628448779221 2028.4830639550112L1256.8377155455444 1727.088421647112 884.1505909513667 1598.7619535318106z" fill="rgba(142, 115, 28, 0.4)" class="triangle-float1"></path></g><defs><mask id="SvgjsMask1025"><rect width="3840" height="2160" fill="#ffffff"></rect></mask><style>
                @keyframes float1 {
                    0%{transform: translate(0, 0)}
                    50%{transform: translate(-10px, 0)}
                    100%{transform: translate(0, 0)}
                }

                .triangle-float1 {
                    animation: float1 5s infinite;
                }

                @keyframes float2 {
                    0%{transform: translate(0, 0)}
                    50%{transform: translate(-5px, -5px)}
                    100%{transform: translate(0, 0)}
                }

                .triangle-float2 {
                    animation: float2 4s infinite;
                }

                @keyframes float3 {
                    0%{transform: translate(0, 0)}
                    50%{transform: translate(0, -10px)}
                    100%{transform: translate(0, 0)}
                }

                .triangle-float3 {
                    animation: float3 6s infinite;
                }
            </style></defs></svg>