<svg id="visual" viewBox="0 0 900 600" width="900" height="600" xmlns="http://www.w3.org/2000/svg" xmlns:xlink="http://www.w3.org/1999/xlink" version="1.1"><path d="M0 436L129 408L257 390L386 402L514 449L643 409L771 397L900 380L900 601L771 601L643 601L514 601L386 601L257 601L129 601L0 601Z" fill="#0e0c30"></path><path d="M0 397L129 408L257 425L386 445L514 473L643 430L771 465L900 423L900 601L771 601L643 601L514 601L386 601L257 601L129 601L0 601Z" fill="#0f1138"></path><path d="M0 488L129 509L257 446L386 510L514 500L643 488L771 494L900 489L900 601L771 601L643 601L514 601L386 601L257 601L129 601L0 601Z" fill="#121540"></path><path d="M0 496L129 521L257 493L386 540L514 498L643 539L771 512L900 485L900 601L771 601L643 601L514 601L386 601L257 601L129 601L0 601Z" fill="#151948"></path><path d="M0 552L129 554L257 551L386 527L514 562L643 540L771 544L900 536L900 601L771 601L643 601L514 601L386 601L257 601L129 601L0 601Z" fill="#181d51"></path></svg>